<?xml version="1.0" encoding="iso-8859-1"?>
<!-- Generator: Adobe Illustrator 19.0.0, SVG Export Plug-In . SVG Version: 6.00 Build 0)  -->
<svg version="1.1" id="Capa_1" xmlns="http://www.w3.org/2000/svg" xmlns:xlink="http://www.w3.org/1999/xlink" x="0px" y="0px"
	 viewBox="0 0 490.667 490.667" style="enable-background:new 0 0 490.667 490.667;" xml:space="preserve">
<g>
	<path style="fill:#546E7A;" d="M96,224c-5.891,0.011-10.675-4.757-10.686-10.648c-0.005-2.84,1.123-5.565,3.134-7.571
		L195.115,99.115c4.237-4.092,10.99-3.975,15.083,0.262c3.992,4.134,3.992,10.687,0,14.82L103.531,220.864
		C101.535,222.866,98.827,223.994,96,224z"/>
	<path style="fill:#546E7A;" d="M394.667,224c-2.831,0.005-5.548-1.115-7.552-3.115L280.448,114.219
		c-4.092-4.237-3.975-10.99,0.262-15.083c4.134-3.992,10.687-3.992,14.82,0l106.667,106.667c4.159,4.172,4.149,10.926-0.024,15.085
		C400.18,222.875,397.482,223.994,394.667,224z"/>
</g>
<path style="fill:#2196F3;" d="M53.333,202.667h384c29.455,0,53.333,23.878,53.333,53.333v128c0,29.455-23.878,53.333-53.333,53.333
	h-384C23.878,437.333,0,413.455,0,384V256C0,226.545,23.878,202.667,53.333,202.667z"/>
<circle style="fill:#607D8B;" cx="245.333" cy="106.667" r="53.333"/>
<g>
	<path style="fill:#FAFAFA;" d="M96,266.667c-5.891,0-10.667,4.776-10.667,10.667v32H64v-32c0-5.891-4.776-10.667-10.667-10.667
		s-10.667,4.776-10.667,10.667v85.333c0,5.891,4.776,10.667,10.667,10.667S64,368.558,64,362.667v-32h21.333v32
		c0,5.891,4.776,10.667,10.667,10.667c5.891,0,10.667-4.776,10.667-10.667v-85.333C106.667,271.442,101.891,266.667,96,266.667z"/>
	<path style="fill:#FAFAFA;" d="M160,266.667c-17.673,0-32,14.327-32,32v42.667c0,17.673,14.327,32,32,32s32-14.327,32-32v-42.667
		C192,280.994,177.673,266.667,160,266.667z M170.667,341.333c0,5.891-4.776,10.667-10.667,10.667s-10.667-4.776-10.667-10.667
		v-42.667c0-5.891,4.776-10.667,10.667-10.667s10.667,4.776,10.667,10.667V341.333z"/>
	<path style="fill:#FAFAFA;" d="M277.333,266.667h-64c-5.891,0-10.667,4.776-10.667,10.667S207.442,288,213.333,288h21.333v74.667
		c0,5.891,4.776,10.667,10.667,10.667c5.891,0,10.667-4.776,10.667-10.667V288h21.333c5.891,0,10.667-4.776,10.667-10.667
		S283.224,266.667,277.333,266.667z"/>
	<path style="fill:#FAFAFA;" d="M352,288c5.891,0,10.667-4.776,10.667-10.667s-4.776-10.667-10.667-10.667h-42.667
		c-5.891,0-10.667,4.776-10.667,10.667v85.333c0,5.891,4.776,10.667,10.667,10.667H352c5.891,0,10.667-4.776,10.667-10.667
		c0-5.891-4.776-10.667-10.667-10.667h-32v-21.333h10.667c5.891,0,10.667-4.776,10.667-10.667c0-5.891-4.776-10.667-10.667-10.667
		H320V288H352z"/>
	<path style="fill:#FAFAFA;" d="M437.333,352h-32v-74.667c0-5.891-4.776-10.667-10.667-10.667c-5.891,0-10.667,4.776-10.667,10.667
		v85.333c0,5.891,4.776,10.667,10.667,10.667h42.667c5.891,0,10.667-4.776,10.667-10.667C448,356.776,443.224,352,437.333,352z"/>
</g>
<g>
</g>
<g>
</g>
<g>
</g>
<g>
</g>
<g>
</g>
<g>
</g>
<g>
</g>
<g>
</g>
<g>
</g>
<g>
</g>
<g>
</g>
<g>
</g>
<g>
</g>
<g>
</g>
<g>
</g>
</svg>
